name C:\Users\u0101727\Documents\MyRepositories\paper-ad\trackingsimulations_3d\Results\TrackSim\IK_c3.mot
datacolumns 32
datarows 5
range 3.85000000 3.91400000
endheader
time	pelvis_tilt	pelvis_list	pelvis_rotation	pelvis_tx	pelvis_ty	pelvis_tz	hip_flexion_l	hip_adduction_l	hip_rotation_l	hip_flexion_r	hip_adduction_r	hip_rotation_r	knee_angle_l	knee_angle_r	ankle_angle_l	ankle_angle_r	subtalar_angle_l	subtalar_angle_r	lumbar_extension	lumbar_bending	lumbar_rotation	arm_flex_l	arm_add_l	arm_rot_l	arm_flex_r	arm_add_r	arm_rot_r	elbow_flex_l	elbow_flex_r	pro_sup_l	pro_sup_r	
          3.85000000	          0.29779699	         -3.02118038	          7.11093484	          0.02661304	          0.92243190	         -0.22401240	        -11.49743010	         -4.77379725	          1.37848127	         26.52312568	          4.44725676	         -7.54813606	        -36.08745169	        -22.75573688	         -4.15648588	         -5.99086084	         13.33864586	        -10.99675331	         -3.96176501	          5.52665148	         -8.62504724	         -1.76281625	        -14.53193801	         19.20602910	         -9.28518903	        -15.61609622	         14.50084726	         22.96824311	         11.49124426	         86.51662706	         86.51662706	
          3.86600000	          0.45673763	         -4.05209707	          6.94096504	          0.05031568	          0.92319600	         -0.22275129	         -9.52713496	         -6.00935651	          1.23350681	         25.60889994	          5.88049099	         -7.47619951	        -40.35035910	        -24.04060547	        -10.31616787	         -4.01212203	         11.97769613	        -11.15984173	         -3.76877445	          6.85046682	         -8.18812450	         -2.26058506	        -14.03235256	         19.48234081	         -9.05892487	        -15.91014790	         14.48168084	         21.88299425	         11.81066115	         86.51662706	         86.51662706	
          3.88200000	          0.64961333	         -4.89937074	          6.86076075	          0.07315473	          0.92452381	         -0.22174644	         -7.20081224	         -6.85963105	          1.79828804	         24.32424030	          7.06752129	         -7.50810805	        -44.68031544	        -24.72812387	        -15.53954348	         -2.00999328	         10.74052238	        -10.96510919	         -3.75576160	          7.95939860	         -7.76887424	         -2.62363808	        -13.59630481	         19.90459845	         -8.72820853	        -16.20481978	         14.34732598	         20.83977875	         12.33168050	         86.51662706	         86.51662706	
          3.89800000	          0.86049804	         -5.59231687	          6.87877662	          0.09505573	          0.92637439	         -0.22096236	         -4.55039533	         -7.37023896	          2.78978341	         22.76441796	          8.05313621	         -7.59878783	        -49.14453987	        -24.89308925	        -18.16708115	         -0.18784508	          9.70840637	        -10.59275242	         -3.90312430	          8.88062045	         -7.35650850	         -2.83777080	        -13.24112078	         20.47374244	         -8.30982114	        -16.50233546	         14.11780149	         19.88643320	         13.08103009	         86.51662706	         86.51662706	
          3.91400000	          1.08608833	         -6.11363106	          7.01390730	          0.11611940	          0.92878471	         -0.22039269	         -1.69342611	         -7.54625110	          4.01221807	         20.98581203	          8.82661352	         -7.72884910	        -53.38905362	        -24.62134006	        -19.14781065	          1.37590806	          8.07523434	        -10.12078947	         -4.18297666	          9.59015165	         -6.97298967	         -2.92689805	        -12.98566026	         21.15389156	         -7.84459252	        -16.79889190	         13.81832425	         19.06435730	         14.08873106	         86.51662706	         86.51662706	
